<svg width="69" height="63" viewBox="0 0 69 63" fill="none" xmlns="http://www.w3.org/2000/svg">
<rect y="20.8672" width="69" height="41.7536" rx="4" fill="white"/>
<path d="M52.691 23.104C52.691 17.3694 50.7745 11.8696 47.363 7.81463C43.9516 3.75964 39.3246 0.608155 34.5001 0.608154C29.6756 0.608154 25.0487 3.75964 21.6372 7.81463C18.2257 11.8696 16.3092 17.3694 16.3092 23.104H20.5252C20.5252 18.6984 21.9975 14.4733 24.6183 11.3581C27.2391 8.24293 30.7937 6.49283 34.5001 6.49283C38.2065 6.49283 41.7611 8.24293 44.3819 11.3581C47.0027 14.4733 48.4751 18.6984 48.4751 23.104H52.691Z" fill="white"/>
<path d="M52.9422 35.428C54.7882 36.0161 55.939 38.0254 55.513 39.9154L53.9191 46.986L47.2334 44.8566L48.8273 37.786C49.2534 35.8959 51.096 34.8399 52.9422 35.428Z" stroke="black"/>
<path d="M45.4278 50.601C44.941 52.7606 46.2563 55.0558 48.3657 55.7277C50.475 56.3995 52.5796 55.1934 53.0665 53.0339L54.3933 47.1477L46.7547 44.7149L45.4278 50.601Z" fill="black"/>
<path d="M55.2463 50.6546C55.9699 49.4686 57.6111 49.1696 58.9267 50.0435C60.2423 50.9176 60.6771 52.596 59.9536 53.782C59.2299 54.9676 57.5892 55.2661 56.2737 54.3922C54.9584 53.5183 54.5232 51.8405 55.2463 50.6546Z" stroke="black"/>
<path d="M55.675 54.3338L59.5436 49.9334" stroke="black"/>
<path d="M59.7101 43.6372C60.4065 44.0967 60.9126 44.6721 61.18 45.2093C61.4496 45.751 61.4523 46.1912 61.278 46.4795C61.1037 46.7678 60.722 46.9542 60.1377 46.9327C59.5584 46.9113 58.8436 46.681 58.1472 46.2216C57.4508 45.7621 56.9447 45.1867 56.6773 44.6496C56.4077 44.1077 56.4049 43.6676 56.5793 43.3793C56.7536 43.091 57.1354 42.9046 57.7196 42.9261C58.2988 42.9476 59.0138 43.1778 59.7101 43.6372Z" stroke="black"/>
<path d="M56.4702 42.8577L61.4235 46.7529" stroke="black"/>
</svg>
