<svg width="51" height="60" viewBox="0 0 51 60" fill="none" xmlns="http://www.w3.org/2000/svg">
<path d="M10.4502 13.7261C12.3996 13.7024 13.9922 15.2765 13.9922 17.2261V41.5063C13.9924 43.8529 15.8493 45.7788 18.1943 45.8657L23.9736 46.0796L23.9775 46.0806L33.0781 46.3931L33.6709 46.4683C35.4215 46.6881 36.7353 48.1766 36.7354 49.9409V55.0005C36.7351 56.9333 35.1682 58.5005 33.2354 58.5005H5C3.06714 58.5005 1.50022 56.9333 1.5 55.0005V17.2925C1.50006 15.3763 3.041 13.816 4.95703 13.7925L10.4502 13.7261Z" stroke="white" stroke-width="3"/>
<path d="M17.353 1.5H20.5884C36.3285 1.50002 49.0884 14.2599 49.0884 30V42.6475C49.0882 44.5803 47.5212 46.1474 45.5884 46.1475H17.353C15.4202 46.1475 13.8532 44.5803 13.853 42.6475V5L13.8579 4.82031C13.9514 2.97083 15.4803 1.5 17.353 1.5Z" stroke="white" stroke-width="3"/>
<path d="M28.1689 2.64844C30.0172 3.29097 32.1571 4.2438 34.3203 5.50977C38.2088 7.78546 41.9962 10.9719 44.2588 14.958L44.2686 14.9756L44.2793 14.9932C45.1436 16.4244 45.727 17.4831 46.0879 18.2539C46.0799 18.2517 46.0716 18.2503 46.0635 18.248C43.5512 17.5438 38.2756 15.4928 33.0889 17.001C32.0931 16.9837 31.5171 16.8408 31.1982 16.6895C30.9198 16.5573 30.8387 16.4263 30.7871 16.2832C30.7101 16.0694 30.6709 15.7069 30.7354 15.0967C30.7992 14.4926 30.9433 13.8115 31.1162 12.9863C31.4405 11.4387 31.8754 9.39825 31.5049 7.42383C31.1611 5.59244 30.1571 3.93374 28.1689 2.64844Z" stroke="white" stroke-width="3"/>
</svg>
