<svg width="88" height="84" viewBox="0 0 88 84" fill="none" xmlns="http://www.w3.org/2000/svg">
<mask id="path-1-inside-1_6505_3905" fill="white">
<path d="M41.8913 60.6414C41.8913 54.5504 39.6845 48.7089 35.7565 44.4019C31.8284 40.0949 26.5008 37.6753 20.9457 37.6753C15.3905 37.6753 10.0629 40.0949 6.13484 44.4019C2.20677 48.7089 8.38802e-07 54.5504 0 60.6414L20.9457 60.6414H41.8913Z"/>
</mask>
<path d="M41.8913 60.6414C41.8913 54.5504 39.6845 48.7089 35.7565 44.4019C31.8284 40.0949 26.5008 37.6753 20.9457 37.6753C15.3905 37.6753 10.0629 40.0949 6.13484 44.4019C2.20677 48.7089 8.38802e-07 54.5504 0 60.6414L20.9457 60.6414H41.8913Z" stroke="white" stroke-width="6" mask="url(#path-1-inside-1_6505_3905)"/>
<path d="M20.9454 20.0366C25.3884 20.0366 29.2198 24.0307 29.2198 29.2544C29.2197 34.4779 25.3883 38.4712 20.9454 38.4712C16.5027 38.4711 12.6712 34.4779 12.671 29.2544C12.671 24.0308 16.5026 20.0368 20.9454 20.0366Z" stroke="white" stroke-width="3"/>
<path d="M20.8309 40.8982H20.3602L20.5956 41.3464L20.8309 40.8982Z" fill="white" stroke="white" stroke-width="3"/>
<path d="M21.678 49.0764L20.595 52.05L19.511 49.0764L20.595 47.0178L21.678 49.0764Z" fill="white" stroke="white" stroke-width="3"/>
<mask id="path-5-inside-2_6505_3905" fill="white">
<path d="M88 60.6416C88 54.5506 85.7932 48.7091 81.8651 44.4021C77.937 40.0952 72.6094 37.6755 67.0543 37.6755C61.4992 37.6755 56.1716 40.0952 52.2435 44.4021C48.3154 48.7091 46.1086 54.5506 46.1086 60.6416L67.0543 60.6416H88Z"/>
</mask>
<path d="M88 60.6416C88 54.5506 85.7932 48.7091 81.8651 44.4021C77.937 40.0952 72.6094 37.6755 67.0543 37.6755C61.4992 37.6755 56.1716 40.0952 52.2435 44.4021C48.3154 48.7091 46.1086 54.5506 46.1086 60.6416L67.0543 60.6416H88Z" stroke="white" stroke-width="6" mask="url(#path-5-inside-2_6505_3905)"/>
<path d="M67.0569 20.0366C71.4998 20.0366 75.3313 24.0307 75.3313 29.2544C75.3312 34.4779 71.4998 38.4712 67.0569 38.4712C62.6141 38.4711 58.7826 34.4779 58.7825 29.2544C58.7825 24.0308 62.614 20.0368 67.0569 20.0366Z" stroke="white" stroke-width="3"/>
<path d="M66.9397 40.8982H66.469L66.7043 41.3464L66.9397 40.8982Z" fill="white" stroke="white" stroke-width="3"/>
<path d="M67.7839 49.0767L66.7009 52.0503L65.6169 49.0767L66.7009 47.0181L67.7839 49.0767Z" fill="white" stroke="white" stroke-width="3"/>
<path d="M42.9771 20.6384C48.3231 20.6384 55.443 22.4833 57.9673 29.3093C58.2983 31.5331 59.3287 33.4227 60.395 34.9587C60.9452 35.7512 61.5224 36.4727 62.0347 37.1052C62.5626 37.7572 62.9947 38.2816 63.3286 38.7507C63.5291 39.0325 63.6497 39.2392 63.7222 39.3826C63.7169 39.385 63.7121 39.3889 63.7065 39.3914C63.5305 39.4696 63.2711 39.5578 62.9019 39.6453C62.1618 39.8205 61.0968 39.9662 59.6069 40.0691L42.98 40.6033L27.6694 40.0759C26.5304 39.7203 25.6849 39.4236 25.0688 39.1609C24.7244 39.014 24.4862 38.8923 24.3247 38.7976C24.3484 38.7649 24.3739 38.7282 24.4038 38.6892C25.4278 37.3537 28.5034 34.6067 29.8872 29.3074L29.8979 29.2644L29.9067 29.2195C30.4372 26.5378 32.3208 24.4027 34.8638 22.9031C37.4113 21.4008 40.4641 20.6385 42.9771 20.6384Z" stroke="white" stroke-width="3"/>
<path d="M42.98 1.5C47.4229 1.5 51.2544 5.49409 51.2544 10.7178C51.2543 15.9413 47.4228 19.9346 42.98 19.9346C38.5372 19.9344 34.7057 15.9412 34.7056 10.7178C34.7056 5.49418 38.5371 1.50013 42.98 1.5Z" stroke="white" stroke-width="3"/>
<path d="M42.8655 22.3616H42.3948L42.6301 22.8098L42.8655 22.3616Z" fill="white" stroke="white" stroke-width="3"/>
<path d="M43.7125 30.54L42.6295 33.5137L41.5455 30.54L42.6295 28.4814L43.7125 30.54Z" fill="white" stroke="white" stroke-width="3"/>
</svg>
