<svg width="40" height="40" viewBox="0 0 40 40" fill="none" xmlns="http://www.w3.org/2000/svg">
<circle cx="20" cy="20" r="20" transform="matrix(-1 0 0 1 40 0)" fill="white"/>
<path d="M26 20.5C26 20.2964 25.9618 20.0995 25.8855 19.9091C25.8092 19.7178 25.7074 19.5585 25.5802 19.4313L18.5573 12.4084C18.2774 12.1285 17.9211 11.9885 17.4885 11.9885C17.056 11.9885 16.6997 12.1285 16.4198 12.4084C16.1399 12.6883 16 13.0445 16 13.4771C16 13.9096 16.1399 14.2659 16.4198 14.5458L22.374 20.5L16.4198 26.4542C16.1399 26.7341 16 27.0903 16 27.5229C16 27.9554 16.1399 28.3117 16.4198 28.5916C16.6997 28.8715 17.056 29.0114 17.4885 29.0114C17.9211 29.0114 18.2774 28.8715 18.5573 28.5916L25.5802 21.5687C25.7328 21.416 25.8407 21.2506 25.9038 21.0725C25.9679 20.8944 26 20.7035 26 20.5Z" fill="#0E2148"/>
</svg>
