<svg width="40" height="40" viewBox="0 0 40 40" fill="none" xmlns="http://www.w3.org/2000/svg">
<circle cx="20" cy="20" r="20" fill="white"/>
<path d="M14 20.5C14 20.2964 14.0382 20.0995 14.1145 19.9091C14.1908 19.7178 14.2926 19.5585 14.4198 19.4313L21.4427 12.4084C21.7226 12.1285 22.0789 11.9885 22.5115 11.9885C22.944 11.9885 23.3003 12.1285 23.5802 12.4084C23.8601 12.6883 24 13.0445 24 13.4771C24 13.9096 23.8601 14.2659 23.5802 14.5458L17.626 20.5L23.5802 26.4542C23.8601 26.7341 24 27.0903 24 27.5229C24 27.9554 23.8601 28.3117 23.5802 28.5916C23.3003 28.8715 22.944 29.0114 22.5115 29.0114C22.0789 29.0114 21.7226 28.8715 21.4427 28.5916L14.4198 21.5687C14.2672 21.416 14.1593 21.2506 14.0962 21.0725C14.0321 20.8944 14 20.7035 14 20.5Z" fill="#0E2148"/>
</svg>
