<svg width="94" height="95" viewBox="0 0 94 95" fill="none" xmlns="http://www.w3.org/2000/svg">
<g clip-path="url(#clip0_1882_8428)">
<path d="M25.189 13.9882C18.771 18.4115 13.1902 23.8614 8.986 30.4497C0.782183 27.8368 -2.06404 18.3929 1.52629 10.8714C6.9769 -0.476245 24.3333 0.344963 25.189 13.9882Z" fill="black"/>
<path d="M83.5515 22.5716L82.9004 22.3289C78.0637 16.1512 71.1993 12.1012 64 9.26425C64 3.08652 70.697 -0.440942 76.2592 0.0443178C81.8214 0.529577 86.6768 5.8301 87.1046 11.4479C87.4209 15.7033 86.0257 19.2494 83.5329 22.5902L83.5515 22.5716Z" fill="black"/>
<circle cx="49" cy="50" r="45" fill="white"/>
<path d="M42.722 54.1742C39.5037 57.4777 34.5554 60.3333 29.8675 58.6722C16.1387 53.7823 33.7927 25.0773 44.8241 32.8975C51.3723 37.5261 47.3541 49.4149 42.7034 54.1742H42.722ZM41.7175 43.7971C39.6526 44.3757 38.8154 50.6467 41.4756 49.4523C43.4847 48.5564 43.801 43.1999 41.7175 43.7971Z" fill="black"/>
<path d="M68.0221 31.5376C76.9514 30.0258 85.6575 46.5433 81.7323 53.7476C79.686 57.4803 76.1701 56.7338 73.2309 54.6248C68.8406 51.5079 65.4549 47.5885 64.1341 42.232C63.2412 38.5552 63.1668 32.3588 68.0221 31.5376ZM69.008 42.512C66.9803 43.1838 68.822 48.5217 70.459 48.0924C72.3751 47.6072 70.9985 41.8587 69.008 42.512Z" fill="black"/>
<path d="M69.0067 42.5097C70.9785 41.8564 72.3551 47.6049 70.4577 48.0902C68.8392 48.5008 66.9976 43.1629 69.0067 42.5097Z" fill="white"/>
<ellipse cx="61.5" cy="75" rx="2.5" ry="4" fill="black"/>
<path fill-rule="evenodd" clip-rule="evenodd" d="M63.1747 63.7716C63.1913 63.741 63.2076 63.7155 63.2234 63.6956V63.7143C63.5074 63.3558 64.0486 62.9023 64.6181 62.425C65.205 61.9332 65.8219 61.4162 66.2185 60.952C67.5393 59.3843 69.3809 56.9206 67.8741 54.9236C66.1999 52.684 56.8799 52.7586 54.4057 53.6918C51.1316 54.9236 51.2432 57.8725 53.4384 60.1682C53.9642 60.7149 55.473 61.6759 56.8482 62.5518C58.1486 63.38 59.3295 64.1322 59.4471 64.3862C60.0637 64.9343 60.7193 65.1163 61.5234 64.9624C62.2164 64.8298 62.9776 63.9987 63.1747 63.7716Z" fill="black"/>
<ellipse cx="40.5" cy="51.5" rx="5.5" ry="2.5" fill="#5B98FF"/>
<ellipse cx="71.5" cy="50.5" rx="5.5" ry="2.5" fill="#5B98FF"/>
<rect x="40" y="52" width="2" height="24" fill="#5B98FF"/>
<path d="M70 50H72L72.5 68H70.5L70 50Z" fill="#5B98FF"/>
</g>
<defs>
<clipPath id="clip0_1882_8428">
<rect width="94" height="95" fill="white"/>
</clipPath>
</defs>
</svg>
