<svg width="602" height="180" viewBox="0 0 602 180" fill="none" xmlns="http://www.w3.org/2000/svg">
<rect width="602" height="180" rx="10" fill="#EEEEEE"/>
<path d="M45.9375 59.0234V76.7969H43.5547V67.832H41.9531V75.9766H39.5898V59.2773H41.9531V65.8008H43.5547V59.0234H45.9375ZM38.1055 60.8594V72.3242H31.0352V60.8594H38.1055ZM33.3594 62.832V70.3711H35.7812V62.832H33.3594ZM63.9844 66.6016V68.418H57.1484V69.5312H62.0508V73.8672H52.1484V74.8438H62.5195V76.6797H49.707V72.1875H59.5898V71.3086H49.6875V69.5312H54.668V68.418H47.8516V66.6016H63.9844ZM57.1289 59.0039V60.4102H62.4609V62.2461H57.4414C57.9297 63.2812 59.7461 64.1309 63.3398 64.2773L62.6172 66.1133C59.3164 65.957 57.0312 65.1172 55.8984 63.7695C54.7754 65.1172 52.4805 65.957 49.1602 66.1133L48.4766 64.2773C52.041 64.1309 53.8477 63.2812 54.3555 62.2461H49.375V60.4102H54.668V59.0039H57.1289ZM73.2031 59.2773C77.2852 59.2773 79.6484 60.3516 79.668 62.3047C79.6484 64.2773 77.2852 65.3516 73.2031 65.3516C69.1016 65.3516 66.7188 64.2773 66.7188 62.3047C66.7188 60.3516 69.1016 59.2773 73.2031 59.2773ZM73.2031 61.0938C70.5859 61.0938 69.3164 61.5234 69.3359 62.3047C69.3164 63.1836 70.5859 63.5156 73.2031 63.5156C75.8398 63.5156 77.0898 63.1836 77.0898 62.3047C77.0898 61.5234 75.8398 61.0938 73.2031 61.0938ZM81.3086 66.1914V68.1641H65.0977V66.1914H81.3086ZM79.3359 69.1992V73.7305H69.4336V74.8047H79.8047V76.6797H66.9922V71.9922H76.875V71.0156H66.9727V69.1992H79.3359ZM95.9375 60.5859V62.6172H90.3516V70.5078C92.9395 70.4785 94.8047 70.3613 96.8945 69.9805L97.1484 71.9922C94.707 72.4609 92.5586 72.5586 89.2773 72.5391H87.832V60.5859H95.9375ZM102.012 59.0234V76.8359H99.5312V67.207H95.0586V65.1758H99.5312V59.0234H102.012ZM116.992 59.1797C121.074 59.1797 123.438 60.2539 123.457 62.2266C123.438 63.9844 121.533 65.0293 118.184 65.2148V66.25H125.098V68.2227H108.887V66.25H115.723V65.2148C112.402 65.0098 110.508 63.9648 110.508 62.2266C110.508 60.2539 112.891 59.1797 116.992 59.1797ZM116.992 61.0156C114.375 61.0156 113.105 61.4062 113.125 62.2266C113.105 63.0859 114.375 63.4375 116.992 63.4375C119.629 63.4375 120.879 63.0859 120.879 62.2266C120.879 61.4062 119.629 61.0156 116.992 61.0156ZM123.125 69.1992V73.7305H113.223V74.8047H123.594V76.6797H110.781V71.9922H120.664V71.0547H110.762V69.1992H123.125ZM141.074 59.0234V76.8359H138.594V59.0234H141.074ZM135.566 60.5078V67.3633H129.707V70.625C132.412 70.6152 134.717 70.459 137.324 70.0391L137.539 72.0508C134.609 72.5586 131.973 72.6758 128.73 72.6758H127.129V65.3906H133.027V62.5195H127.109V60.5078H135.566ZM158.105 60.5664V62.2461C158.105 64.4727 158.105 66.9727 157.383 70.7422L154.883 70.4883C155.557 67.1289 155.586 64.6289 155.605 62.5391H145.137V60.5664H158.105ZM159.668 72.5977V74.6289H143.457V72.5977H149.258V66.4844H151.738V72.5977H159.668ZM180.234 59.043V68.8867H177.734V59.043H180.234ZM172.168 61.3672C172.148 63.4766 173.438 65.5664 176.348 66.3672L175.156 68.3398C173.105 67.7344 171.689 66.5039 170.879 64.9219C170.068 66.6406 168.613 67.998 166.484 68.6328L165.293 66.6797C168.262 65.7812 169.57 63.5742 169.57 61.3672V59.6484H172.168V61.3672ZM180.332 69.6875V71.6602H178.203V74.6094H180.488V76.6016H167.969V74.6094H170.273V71.6602H168.125V69.6875H180.332ZM172.734 74.6094H175.742V71.6602H172.734V74.6094ZM196.66 59.0234V65.625H199.277V67.6562H196.66V76.8359H194.16V59.0234H196.66ZM191.68 60.6641V62.6758H185.82V70.4688C188.398 70.4395 190.527 70.3223 192.891 69.9023L193.164 71.9922C190.41 72.4609 187.988 72.5391 184.844 72.5195H183.34V60.6641H191.68ZM209.102 60.4688V61.8164H212.422V59.043H214.902V71.9727H212.422V67.6172H209.102V69.1211H200.664V60.4688H209.102ZM203.145 62.4414V67.1875H206.66V62.4414H203.145ZM215.273 74.4922V76.4844H203.066V70.7422H205.586V74.4922H215.273ZM209.102 65.6445H212.422V63.8281H209.102V65.6445ZM220.312 70.5469C220.332 68.125 220.977 67.3633 222.148 66.6406C222.988 66.0938 223.633 65.4883 223.633 64.5898C223.633 63.6133 222.871 62.9688 221.934 62.9688C221.016 62.9688 220.176 63.5742 220.137 64.7266H217.363C217.422 61.9727 219.453 60.6641 221.953 60.6641C224.668 60.6641 226.602 62.0898 226.602 64.4922C226.602 66.0938 225.781 67.1289 224.492 67.8906C223.398 68.5547 222.91 69.1797 222.891 70.5469V70.7617H220.312V70.5469ZM221.66 75.1758C220.742 75.1758 220 74.4336 220.02 73.5352C220 72.6367 220.742 71.9141 221.66 71.9141C222.52 71.9141 223.281 72.6367 223.281 73.5352C223.281 74.4336 222.52 75.1758 221.66 75.1758Z" fill="#0E2148"/>
<path d="M41.9824 102.172H45.9375V92.8848H48.1348V117.055H45.9375V104.076H41.9824V111.371H32.0215V95.375H41.9824V102.172ZM34.1895 109.525H39.8145V97.2207H34.1895V109.525ZM53.3789 118.373H51.1523V92.3281H53.3789V118.373ZM78.457 118.432H76.1426V92.3281H78.457V118.432ZM71.0742 96.752H60.9961V109.965C63.6719 109.965 65.9229 109.906 67.749 109.789C69.585 109.672 71.4355 109.447 73.3008 109.115L73.5352 111.049C71.6211 111.391 69.7314 111.625 67.8662 111.752C66.001 111.869 63.6426 111.938 60.791 111.957H58.6816V94.8184H71.0742V96.752ZM97.793 96.6934H95.127V105.321C96.6406 105.204 97.9395 105.082 99.0234 104.955L99.1992 106.684C96.8359 107.055 94.3066 107.304 91.6113 107.431C88.916 107.558 86.1328 107.621 83.2617 107.621L82.998 105.717C84.0625 105.717 85.1855 105.702 86.3672 105.673V96.6934H83.7305V94.8184H97.793V96.6934ZM103.271 100.268H107.197V102.23H103.271V111.518H100.986V92.3574H103.271V100.268ZM104.473 117.816H86.9824V109.701H89.2383V115.883H104.473V117.816ZM88.623 105.629C90.5566 105.57 91.9727 105.517 92.8711 105.468V96.6934H88.623V105.629ZM128.994 102.641H133.359V104.574H128.994V118.432H126.709V92.3281H128.994V102.641ZM122.139 96.7812H112.266V109.965C114.697 109.965 116.821 109.896 118.638 109.76C120.454 109.623 122.305 109.379 124.189 109.027L124.482 111.02C122.559 111.371 120.669 111.605 118.813 111.723C116.958 111.84 114.697 111.898 112.031 111.898H109.98V94.877H122.139V96.7812ZM142.617 94.0273C143.945 94.0371 145.132 94.3008 146.177 94.8184C147.231 95.3359 148.057 96.0586 148.652 96.9863C149.248 97.9043 149.551 98.959 149.561 100.15C149.551 101.225 149.302 102.191 148.813 103.051C148.325 103.91 147.646 104.613 146.777 105.16C145.918 105.697 144.922 106.034 143.789 106.171V110.609C146.562 110.473 148.945 110.277 150.938 110.023L151.084 111.752C148.867 112.123 146.528 112.377 144.067 112.514C141.606 112.65 139.053 112.719 136.406 112.719H134.824L134.443 110.785C137.529 110.766 139.873 110.731 141.475 110.683V106.171C140.322 106.034 139.307 105.697 138.428 105.16C137.549 104.623 136.865 103.925 136.377 103.065C135.898 102.196 135.664 101.225 135.674 100.15C135.664 98.959 135.952 97.9043 136.538 96.9863C137.134 96.0586 137.959 95.3359 139.014 94.8184C140.068 94.3008 141.27 94.0371 142.617 94.0273ZM142.617 96.0195C141.719 96.0195 140.908 96.1953 140.186 96.5469C139.473 96.8984 138.916 97.3867 138.516 98.0117C138.115 98.6367 137.92 99.3496 137.93 100.15C137.92 100.951 138.115 101.664 138.516 102.289C138.916 102.914 139.473 103.402 140.186 103.754C140.908 104.105 141.719 104.281 142.617 104.281C143.506 104.281 144.302 104.105 145.005 103.754C145.718 103.402 146.274 102.914 146.675 102.289C147.085 101.664 147.295 100.951 147.305 100.15C147.295 99.3496 147.085 98.6367 146.675 98.0117C146.274 97.3867 145.718 96.8984 145.005 96.5469C144.302 96.1953 143.506 96.0195 142.617 96.0195ZM154.893 103.08H159.141V105.072H154.893V118.373H152.607V92.3281H154.893V103.08ZM183.193 97.0742H180.293V109.613C181.943 109.496 183.32 109.369 184.424 109.232L184.541 110.932C182.1 111.322 179.551 111.581 176.895 111.708C174.238 111.835 171.338 111.908 168.193 111.928L167.9 109.965C169.414 109.965 170.586 109.96 171.416 109.95V97.0742H168.545V95.1699H183.193V97.0742ZM188.379 102.787H192.744V104.721H188.379V118.373H186.094V92.3281H188.379V102.787ZM173.643 109.906C174.961 109.877 176.445 109.823 178.096 109.745V97.0742H173.643V109.906ZM215.244 108.295H197.227V94.584H214.951V96.5176H199.57V100.385H214.395V102.23H199.57V106.42H215.244V108.295ZM217.998 114.975H194.15V113.07H217.998V114.975ZM241.699 118.432H239.385V102.846H231.27V100.941H239.385V92.3281H241.699V118.432ZM223.828 110.17C226.025 110.15 228.022 110.067 229.819 109.921C231.616 109.765 233.428 109.496 235.254 109.115L235.547 111.02C233.564 111.42 231.626 111.703 229.731 111.869C227.837 112.025 225.762 112.104 223.506 112.104H221.514V95.2578H223.828V110.17ZM266.162 103.08H270.527V104.984H266.162V118.373H263.877V92.3281H266.162V103.08ZM261.357 98.4219H245.859V96.5176H252.568V92.6504H254.854V96.5176H261.357V98.4219ZM253.74 100.59C254.961 100.59 256.055 100.844 257.021 101.352C257.988 101.859 258.745 102.567 259.292 103.476C259.839 104.384 260.117 105.414 260.127 106.566C260.117 107.719 259.839 108.749 259.292 109.657C258.745 110.565 257.988 111.273 257.021 111.781C256.055 112.289 254.961 112.543 253.74 112.543C252.51 112.543 251.406 112.289 250.43 111.781C249.463 111.273 248.706 110.565 248.159 109.657C247.612 108.749 247.344 107.719 247.354 106.566C247.344 105.414 247.612 104.384 248.159 103.476C248.706 102.567 249.463 101.859 250.43 101.352C251.406 100.844 252.51 100.59 253.74 100.59ZM253.74 102.523C252.939 102.523 252.217 102.699 251.572 103.051C250.938 103.393 250.439 103.871 250.078 104.486C249.717 105.102 249.541 105.795 249.551 106.566C249.541 107.348 249.717 108.046 250.078 108.661C250.439 109.267 250.938 109.74 251.572 110.082C252.217 110.424 252.939 110.59 253.74 110.58C254.531 110.59 255.244 110.424 255.879 110.082C256.514 109.74 257.012 109.267 257.373 108.661C257.734 108.046 257.92 107.348 257.93 106.566C257.92 105.795 257.734 105.102 257.373 104.486C257.012 103.871 256.514 103.393 255.879 103.051C255.244 102.699 254.531 102.523 253.74 102.523ZM293.467 118.373H291.152V92.3281H293.467V118.373ZM285.762 95.1699C285.742 99.1055 284.746 102.641 282.773 105.775C280.801 108.9 277.715 111.469 273.516 113.48L272.256 111.605C275.732 109.955 278.394 107.904 280.239 105.453C282.095 103.002 283.154 100.199 283.418 97.0449H273.457V95.1699H285.762Z" fill="#0E2148"/>
</svg>
