<svg width="230" height="44" viewBox="0 0 230 44" fill="none" xmlns="http://www.w3.org/2000/svg">
<g clip-path="url(#clip0_2054_6260)">
<path d="M106.028 9.26607C105.073 7.93922 103.589 7.01489 101.828 7.01489C98.9266 7.01489 96.5695 9.37043 96.5695 12.2701C96.5695 13.8802 97.3378 15.2742 98.4791 16.2358C99.7322 12.8515 102.53 10.2575 106.035 9.26607H106.028Z" fill="#4D12EE"/>
<path d="M147.129 7.01489C145.294 7.01489 143.75 7.93922 142.758 9.26607C146.398 10.2575 149.315 12.8515 150.613 16.2358C151.799 15.2742 152.597 13.8802 152.597 12.2701C152.597 9.37043 150.15 7.01489 147.129 7.01489Z" fill="#4D12EE"/>
<path d="M23.1689 10.9731C19.7674 10.9731 17.2462 12.8292 16.3137 15.0357C15.4708 12.5609 12.4274 10.9731 9.41377 10.9731C6.81044 10.9731 4.11013 12.5609 3.35673 14.5959V13.1796C3.35673 12.1658 2.78236 11.4129 1.67837 11.4129C0.574374 11.4129 0 12.1658 0 13.1796V31.5617C0 32.5382 0.619131 33.2016 1.67837 33.2016C2.7376 33.2016 3.35673 32.5382 3.35673 31.5617V19.5008C3.35673 16.2358 5.48266 13.8057 8.74989 13.8057C12.0171 13.8057 13.9715 16.3253 13.9715 19.7244V31.5617C13.9715 32.5382 14.5906 33.2016 15.6498 33.2016C16.7091 33.2016 17.3282 32.5382 17.3282 31.5617V19.7244C17.3282 15.9675 19.4541 13.8057 22.8109 13.8057C26.1676 13.8057 27.9429 16.3253 27.9429 19.7244V31.5617C27.9429 32.5382 28.5621 33.2016 29.6213 33.2016C30.6805 33.2016 31.2997 32.5382 31.2997 31.5617V19.456C31.2997 14.5512 27.8534 10.9731 23.1689 10.9731Z" fill="#0E2148"/>
<path d="M46.2035 10.9731C40.236 10.9731 35.283 15.878 35.283 22.3259C35.283 28.7738 39.7064 33.634 46.8674 33.634C50.9328 33.634 53.3198 32.5755 55.222 31.1145C56.8556 29.8323 55.1324 27.5812 53.5883 28.7291C51.992 29.8771 50.2689 30.8088 46.8674 30.8088C42.444 30.8088 38.9977 27.7675 38.7367 23.6081H54.9161C56.3782 23.6081 56.9451 22.7732 56.9451 21.4463C56.9451 15.1699 52.1263 10.9731 46.2035 10.9731ZM38.6844 20.9543C39.035 17.026 42.1307 13.7983 46.1961 13.7983C50.9253 13.7983 53.8047 17.026 53.8047 20.9543H38.6844Z" fill="#0E2148"/>
<path d="M81.0465 0.5C79.9425 0.5 79.4129 1.16343 79.4129 2.13993V15.6544C77.9956 12.7398 74.5493 10.9732 70.7003 10.9732C64.2479 10.9732 59.8245 16.3179 59.8245 22.326C59.8245 28.3341 64.2479 33.634 70.7003 33.634C74.5493 33.634 77.9956 31.8674 79.4129 28.9528V31.5543C79.4129 32.5308 79.9425 33.1942 81.0465 33.1942C82.1505 33.1942 82.7696 32.5308 82.7696 31.5543V2.13993C82.7696 1.16343 82.1505 0.5 81.0465 0.5ZM71.2747 30.8089C66.2769 30.8089 63.1812 27.1041 63.1812 22.326C63.1812 17.5478 66.2769 13.8058 71.2747 13.8058C75.8697 13.8058 79.4576 17.2049 79.4576 22.326C79.4576 27.447 75.8771 30.8089 71.2747 30.8089Z" fill="#0E2148"/>
<path d="M89.7591 10.9731C88.6551 10.9731 88.0807 11.726 88.0807 12.7398V31.4275C88.0807 32.4413 88.6103 33.1942 89.7591 33.1942C90.9078 33.1942 91.4374 32.4413 91.4374 31.4275V12.7398C91.4374 11.726 90.863 10.9731 89.7591 10.9731Z" fill="#0E2148"/>
<path d="M89.7591 1.4248C88.4313 1.4248 87.2826 2.4833 87.2826 3.98906C87.2826 5.49481 88.4313 6.50858 89.7591 6.50858C91.0869 6.50858 92.2356 5.49481 92.2356 3.98906C92.2356 2.4833 91.0869 1.4248 89.7591 1.4248Z" fill="#0E2148"/>
<path d="M111.227 10.437C103.977 10.437 99.3296 15.8786 99.3296 22.0209V41.5062C99.3296 42.8703 100.21 43.8021 101.806 43.8021C103.402 43.8021 104.193 42.8778 104.193 41.5062V30.4143C105.431 32.3524 107.997 34.0818 111.839 34.0818C118.426 34.0818 123.155 28.6402 123.155 22.2818C123.155 15.9233 118.515 10.437 111.22 10.437H111.227ZM111.272 29.9298C107.378 29.9298 104.156 27.0152 104.156 22.2892C104.156 17.5632 107.341 14.5965 111.227 14.5965C115.472 14.5965 118.299 17.9136 118.299 22.2892C118.299 26.6648 115.517 29.9298 111.272 29.9298Z" fill="#0E2148"/>
<path d="M137.753 10.4364C130.458 10.4364 125.818 15.96 125.818 22.2812C125.818 28.6023 130.547 34.0812 137.134 34.0812C140.983 34.0812 143.549 32.3593 144.78 30.4137V31.338C144.78 32.7022 145.578 33.6339 147.167 33.6339C148.756 33.6339 149.643 32.7096 149.643 31.338V22.0128C149.643 15.8705 145.003 10.429 137.753 10.429V10.4364ZM137.716 29.9292C133.471 29.9292 130.689 26.6568 130.689 22.2886C130.689 17.9204 133.516 14.5959 137.76 14.5959C141.654 14.5959 144.832 17.5999 144.832 22.2886C144.832 26.9773 141.609 29.9292 137.716 29.9292Z" fill="#0E2148"/>
<path d="M164.42 10.437C157.923 10.437 154.074 14.4623 154.074 20.6418V31.3386C154.074 32.7028 154.917 33.6345 156.506 33.6345C158.095 33.6345 158.938 32.7102 158.938 31.3386V20.9922C158.938 16.9296 160.84 14.589 164.42 14.589C168.001 14.589 169.858 16.9371 169.858 20.9922V31.3386C169.858 32.7028 170.701 33.6345 172.29 33.6345C173.879 33.6345 174.722 32.7102 174.722 31.3386V20.6418C174.722 14.4623 170.88 10.437 164.42 10.437Z" fill="#0E2148"/>
<path d="M199.614 0.5C198.017 0.5 197.227 1.42432 197.227 2.80335V14.1114C196.033 12.3 193.378 10.4365 189.581 10.4365C182.994 10.4365 178.265 15.8781 178.265 22.2365C178.265 28.595 182.905 34.0813 190.2 34.0813C197.495 34.0813 202.09 28.7291 202.09 22.4974V2.80335C202.09 1.43178 201.21 0.5 199.614 0.5ZM190.192 29.9293C185.948 29.9293 183.121 26.6121 183.121 22.2365C183.121 17.8609 185.903 14.5959 190.148 14.5959C194.042 14.5959 197.264 17.5105 197.264 22.2365C197.264 26.9625 194.079 29.9293 190.192 29.9293Z" fill="#0E2148"/>
<path d="M217.561 10.4364C210.266 10.4364 205.626 15.96 205.626 22.2812C205.626 28.6023 210.355 34.0812 216.942 34.0812C220.791 34.0812 223.357 32.3593 224.588 30.4137V31.338C224.588 32.7022 225.386 33.6339 226.975 33.6339C228.564 33.6339 229.451 32.7096 229.451 31.338V22.0128C229.451 15.8705 224.812 10.429 217.561 10.429V10.4364ZM217.516 29.9292C213.272 29.9292 210.49 26.6568 210.49 22.2886C210.49 17.9204 213.317 14.5959 217.561 14.5959C221.455 14.5959 224.633 17.5999 224.633 22.2886C224.633 26.9773 221.41 29.9292 217.516 29.9292Z" fill="#0E2148"/>
</g>
<defs>
<clipPath id="clip0_2054_6260">
<rect width="229.459" height="43.2941" fill="white" transform="translate(0 0.5)"/>
</clipPath>
</defs>
</svg>
