<svg width="184" height="35" viewBox="0 0 184 35" fill="none" xmlns="http://www.w3.org/2000/svg">
<g clip-path="url(#clip0_2054_6253)">
<path d="M84.8224 7.01285C84.0586 5.95137 82.8711 5.21191 81.4627 5.21191C79.1413 5.21191 77.2556 7.09634 77.2556 9.41609C77.2556 10.7042 77.8703 11.8193 78.7833 12.5886C79.7858 9.88124 82.0237 7.80598 84.8284 7.01285H84.8224Z" fill="white"/>
<path d="M117.704 5.21191C116.236 5.21191 115 5.95137 114.207 7.01285C117.119 7.80598 119.452 9.88124 120.49 12.5886C121.439 11.8193 122.078 10.7042 122.078 9.41609C122.078 7.09634 120.12 5.21191 117.704 5.21191Z" fill="white"/>
<path d="M18.5351 8.37866C15.8139 8.37866 13.7969 9.86354 13.051 11.6287C12.3767 9.64886 9.9419 8.37866 7.53102 8.37866C5.44835 8.37866 3.28811 9.64886 2.68539 11.2769V10.1438C2.68539 9.3328 2.22589 8.7305 1.34269 8.7305C0.4595 8.7305 0 9.3328 0 10.1438V24.8495C0 25.6307 0.495305 26.1615 1.34269 26.1615C2.19008 26.1615 2.68539 25.6307 2.68539 24.8495V15.2008C2.68539 12.5888 4.38613 10.6447 6.99991 10.6447C9.61368 10.6447 11.1772 12.6604 11.1772 15.3797V24.8495C11.1772 25.6307 11.6725 26.1615 12.5199 26.1615C13.3673 26.1615 13.8626 25.6307 13.8626 24.8495V15.3797C13.8626 12.3741 15.5633 10.6447 18.2487 10.6447C20.9341 10.6447 22.3544 12.6604 22.3544 15.3797V24.8495C22.3544 25.6307 22.8497 26.1615 23.697 26.1615C24.5444 26.1615 25.0397 25.6307 25.0397 24.8495V15.165C25.0397 11.2411 22.2827 8.37866 18.5351 8.37866Z" fill="white"/>
<path d="M36.9629 8.37866C32.1889 8.37866 28.2264 12.3026 28.2264 17.4609C28.2264 22.6192 31.7652 26.5073 37.494 26.5073C40.7463 26.5073 42.6559 25.6605 44.1776 24.4917C45.4845 23.466 44.106 21.6651 42.8707 22.5834C41.5937 23.5018 40.2152 24.2472 37.494 24.2472C33.9553 24.2472 31.1983 21.8141 30.9894 18.4866H43.933C45.1026 18.4866 45.5561 17.8187 45.5561 16.7572C45.5561 11.736 41.7011 8.37866 36.9629 8.37866ZM30.9476 16.3636C31.2281 13.2209 33.7046 10.6388 36.9569 10.6388C40.7403 10.6388 43.0438 13.2209 43.0438 16.3636H30.9476Z" fill="white"/>
<path d="M64.8372 0C63.954 0 63.5303 0.53074 63.5303 1.31194V12.1235C62.3965 9.79186 59.6395 8.37854 56.5603 8.37854C51.3984 8.37854 47.8596 12.6543 47.8596 17.4608C47.8596 22.2672 51.3984 26.5072 56.5603 26.5072C59.6395 26.5072 62.3965 25.0939 63.5303 22.7622V24.8434C63.5303 25.6246 63.954 26.1554 64.8372 26.1554C65.7204 26.1554 66.2157 25.6246 66.2157 24.8434V1.31194C66.2157 0.53074 65.7204 0 64.8372 0ZM57.0198 24.2471C53.0215 24.2471 50.545 21.2833 50.545 17.4608C50.545 13.6382 53.0215 10.6446 57.0198 10.6446C60.6958 10.6446 63.5661 13.3639 63.5661 17.4608C63.5661 21.5576 60.7017 24.2471 57.0198 24.2471Z" fill="white"/>
<path d="M71.8073 8.37866C70.9241 8.37866 70.4646 8.98096 70.4646 9.79198V24.7422C70.4646 25.5532 70.8883 26.1555 71.8073 26.1555C72.7263 26.1555 73.15 25.5532 73.15 24.7422V9.79198C73.15 8.98096 72.6905 8.37866 71.8073 8.37866Z" fill="white"/>
<path d="M71.8073 0.73999C70.745 0.73999 69.826 1.58679 69.826 2.79139C69.826 3.99599 70.745 4.80701 71.8073 4.80701C72.8695 4.80701 73.7885 3.99599 73.7885 2.79139C73.7885 1.58679 72.8695 0.73999 71.8073 0.73999Z" fill="white"/>
<path d="M88.9818 7.94971C83.1814 7.94971 79.4636 12.303 79.4636 17.2168V32.8051C79.4636 33.8964 80.1678 34.6418 81.4448 34.6418C82.7219 34.6418 83.3544 33.9023 83.3544 32.8051V23.9316C84.3451 25.482 86.3979 26.8655 89.4712 26.8655C94.7405 26.8655 98.5239 22.5123 98.5239 17.4255C98.5239 12.3388 94.8121 7.94971 88.9759 7.94971H88.9818ZM89.0176 23.5439C85.9026 23.5439 83.3246 21.2123 83.3246 17.4315C83.3246 13.6507 85.8727 11.2773 88.9818 11.2773C92.3773 11.2773 94.639 13.931 94.639 17.4315C94.639 20.932 92.4132 23.5439 89.0176 23.5439Z" fill="white"/>
<path d="M110.202 7.94908C104.366 7.94908 100.654 12.3679 100.654 17.4249C100.654 22.4818 104.438 26.8649 109.707 26.8649C112.786 26.8649 114.839 25.4874 115.824 23.9309V24.6704C115.824 25.7617 116.462 26.5071 117.733 26.5071C119.004 26.5071 119.715 25.7676 119.715 24.6704V17.2102C119.715 12.2964 116.003 7.94312 110.202 7.94312V7.94908ZM110.172 23.5433C106.777 23.5433 104.551 20.9254 104.551 17.4308C104.551 13.9363 106.813 11.2766 110.208 11.2766C113.323 11.2766 115.866 13.6799 115.866 17.4308C115.866 21.1818 113.288 23.5433 110.172 23.5433Z" fill="white"/>
<path d="M131.536 7.94971C126.339 7.94971 123.259 11.1699 123.259 16.1136V24.671C123.259 25.7623 123.934 26.5077 125.205 26.5077C126.476 26.5077 127.15 25.7683 127.15 24.671V16.3938C127.15 13.1438 128.672 11.2713 131.536 11.2713C134.401 11.2713 135.887 13.1498 135.887 16.3938V24.671C135.887 25.7623 136.561 26.5077 137.832 26.5077C139.103 26.5077 139.777 25.7683 139.777 24.671V16.1136C139.777 11.1699 136.704 7.94971 131.536 7.94971Z" fill="white"/>
<path d="M159.691 0C158.414 0 157.781 0.739459 157.781 1.84268V10.8891C156.827 9.44002 154.702 7.94918 151.665 7.94918C146.395 7.94918 142.612 12.3024 142.612 17.3892C142.612 22.476 146.324 26.865 152.16 26.865C157.996 26.865 161.672 22.5833 161.672 17.5979V1.84268C161.672 0.745422 160.968 0 159.691 0ZM152.154 23.5434C148.758 23.5434 146.497 20.8897 146.497 17.3892C146.497 13.8887 148.723 11.2767 152.118 11.2767C155.233 11.2767 157.811 13.6084 157.811 17.3892C157.811 21.17 155.263 23.5434 152.154 23.5434Z" fill="white"/>
<path d="M174.049 7.94908C168.213 7.94908 164.501 12.3679 164.501 17.4249C164.501 22.4818 168.284 26.8649 173.554 26.8649C176.633 26.8649 178.686 25.4874 179.67 23.9309V24.6704C179.67 25.7617 180.309 26.5071 181.58 26.5071C182.851 26.5071 183.561 25.7676 183.561 24.6704V17.2102C183.561 12.2964 179.849 7.94312 174.049 7.94312V7.94908ZM174.013 23.5433C170.618 23.5433 168.392 20.9254 168.392 17.4308C168.392 13.9363 170.653 11.2766 174.049 11.2766C177.164 11.2766 179.706 13.6799 179.706 17.4308C179.706 21.1818 177.128 23.5433 174.013 23.5433Z" fill="white"/>
</g>
<defs>
<clipPath id="clip0_2054_6253">
<rect width="183.567" height="34.6353" fill="white"/>
</clipPath>
</defs>
</svg>
