<svg width="16" height="16" viewBox="0 0 16 16" fill="none" xmlns="http://www.w3.org/2000/svg">
<path d="M9.30244 2.90949C9.9555 2.47412 10.282 2.25643 10.6378 2.29166C10.9936 2.32689 11.2711 2.60439 11.8261 3.15938L12.8406 4.17396C13.3956 4.72895 13.6731 5.00644 13.7083 5.36221C13.7436 5.71798 13.5259 6.04451 13.0905 6.69757L12.2946 7.89148C12.2116 8.016 12.1701 8.07826 12.1301 8.14074C11.6205 8.93675 11.2559 9.81677 11.0534 10.74C11.0375 10.8125 11.0228 10.8858 10.9935 11.0326L10.8662 11.6692C10.7719 12.1406 10.2256 12.3613 9.83034 12.0877V12.0877C7.51796 10.4868 5.51322 8.48205 3.91235 6.16967V6.16967C3.63869 5.77439 3.85937 5.22813 4.3308 5.13384L4.96744 5.00651C5.11418 4.97717 5.18756 4.96249 5.26002 4.94659C6.18324 4.74408 7.06326 4.37956 7.85927 3.86995C7.92175 3.82995 7.98401 3.78844 8.10853 3.70543L9.30244 2.90949Z" stroke="#111111" stroke-width="1.5"/>
<path d="M3.33334 12.668L6.33334 9.66797" stroke="#111111" stroke-width="1.5" stroke-linecap="round"/>
</svg>
