<svg width="24" height="24" viewBox="0 0 24 24" fill="none" xmlns="http://www.w3.org/2000/svg">
<path d="M7 9L12 4M12 4L17 9M12 4L12 10.5" stroke="#999999" stroke-width="2"/>
<mask id="path-2-inside-1_3580_129" fill="white">
<path d="M18 12.5C19.1046 12.5 20 13.3954 20 14.5V18.5C20 19.6046 19.1046 20.5 18 20.5H6C4.89543 20.5 4 19.6046 4 18.5V14.5C4 13.3954 4.89543 12.5 6 12.5H11V16L11.0049 16.1025C11.0562 16.6067 11.4823 17 12 17C12.5177 17 12.9438 16.6067 12.9951 16.1025L13 16V12.5H18Z"/>
</mask>
<path d="M18 12.5C19.1046 12.5 20 13.3954 20 14.5V18.5C20 19.6046 19.1046 20.5 18 20.5H6C4.89543 20.5 4 19.6046 4 18.5V14.5C4 13.3954 4.89543 12.5 6 12.5H11V16L11.0049 16.1025C11.0562 16.6067 11.4823 17 12 17C12.5177 17 12.9438 16.6067 12.9951 16.1025L13 16V12.5H18Z" fill="#999999"/>
<path d="M4 14.5H2H4ZM11 12.5H13V10.5H11V12.5ZM11 16H9V16.0476L9.00226 16.0951L11 16ZM11.0049 16.1025L9.00715 16.1977L9.00971 16.2515L9.01517 16.3051L11.0049 16.1025ZM12 17L12 19H12L12 17ZM12.9951 16.1025L14.9848 16.3051L14.9903 16.2515L14.9929 16.1977L12.9951 16.1025ZM13 16L14.9977 16.0951L15 16.0476V16H13ZM13 12.5V10.5H11V12.5H13ZM18 12.5V14.5H20H22C22 12.2909 20.2091 10.5 18 10.5V12.5ZM20 14.5H18V18.5H20H22V14.5H20ZM20 18.5H18V20.5V22.5C20.2091 22.5 22 20.7091 22 18.5H20ZM18 20.5V18.5H6V20.5V22.5H18V20.5ZM6 20.5V18.5H4H2C2 20.7091 3.79086 22.5 6 22.5V20.5ZM4 18.5H6V14.5H4H2V18.5H4ZM4 14.5H6V12.5V10.5C3.79086 10.5 2 12.2909 2 14.5H4ZM6 12.5V14.5H11V12.5V10.5H6V12.5ZM11 12.5H9V16H11H13V12.5H11ZM11 16L9.00226 16.0951L9.00715 16.1977L11.0049 16.1025L13.0026 16.0074L12.9977 15.9049L11 16ZM11.0049 16.1025L9.01517 16.3051C9.16947 17.8205 10.4466 19 12 19L12 17L12 15C12.5181 15 12.943 15.3928 12.9946 15.8999L11.0049 16.1025ZM12 17L12 19C13.5534 19 14.8305 17.8205 14.9848 16.3051L12.9951 16.1025L11.0054 15.8999C11.057 15.3928 11.4819 15 12 15L12 17ZM12.9951 16.1025L14.9929 16.1977L14.9977 16.0951L13 16L11.0023 15.9049L10.9974 16.0074L12.9951 16.1025ZM13 16H15V12.5H13H11V16H13ZM13 12.5V14.5H18V12.5V10.5H13V12.5Z" fill="#999999" mask="url(#path-2-inside-1_3580_129)"/>
</svg>
