<svg width="49" height="49" viewBox="0 0 49 49" fill="none" xmlns="http://www.w3.org/2000/svg">
<path d="M40.1494 34.3225C39.584 35.6404 38.8856 36.897 38.0648 38.073C36.9685 39.639 36.0681 40.721 35.378 41.3233C34.3061 42.3074 33.1546 42.8138 31.9235 42.8423C31.0415 42.8423 29.9758 42.5912 28.7344 42.0808C27.489 41.5724 26.3457 41.3233 25.2983 41.3233C24.2019 41.3233 23.0259 41.5724 21.7662 42.0808C20.5085 42.5912 19.4918 42.8587 18.7139 42.8832C17.5359 42.9342 16.3578 42.4156 15.1839 41.3233C14.4346 40.67 13.4975 39.5471 12.3725 37.9587C11.1679 36.2661 10.1777 34.2959 9.40188 32.0562C8.57092 29.6328 8.15442 27.2889 8.15442 25.0186C8.15442 22.4195 8.71588 20.1758 9.84084 18.2974C10.6917 16.8223 11.9081 15.5911 13.3729 14.7225C14.8173 13.8561 16.4662 13.3896 18.1504 13.3709C19.0896 13.3709 20.3207 13.6608 21.8458 14.2325C23.371 14.8041 24.351 15.094 24.7777 15.094C25.1003 15.094 26.1844 14.7531 28.03 14.0773C29.7716 13.4505 31.2416 13.1912 32.4462 13.2933C35.7128 13.5567 38.1649 14.8429 39.7962 17.1623C36.8766 18.9324 35.4331 21.4089 35.4617 24.5878C35.4862 27.0643 36.3866 29.1244 38.1506 30.7598C38.9304 31.5061 39.8404 32.1032 40.8354 32.5217C40.619 33.1485 40.3903 33.7467 40.1494 34.3225ZM32.6626 4.85917C32.6626 6.79876 31.9521 8.61176 30.5413 10.288C28.8345 12.2806 26.7724 13.4342 24.5368 13.2525C24.5075 13.0086 24.4932 12.7631 24.4939 12.5175C24.4939 10.6534 25.3024 8.66076 26.7458 7.02947C27.4645 6.20463 28.3792 5.51659 29.4878 4.96942C30.5944 4.43042 31.6397 4.13234 32.6238 4.0813C32.6503 4.34263 32.6626 4.60192 32.6626 4.85917Z" fill="white"/>
</svg>
