<svg width="32" height="32" viewBox="0 0 32 32" fill="none" xmlns="http://www.w3.org/2000/svg">
<path d="M23.75 1.41406C24.1104 1.41406 24.4031 1.566 24.666 1.7666C24.9173 1.95837 25.1944 2.23733 25.5176 2.56055L29.4395 6.48242C29.7627 6.80564 30.0416 7.08268 30.2334 7.33398C30.434 7.5969 30.5859 7.88961 30.5859 8.25C30.5859 8.61039 30.434 8.9031 30.2334 9.16602C30.0416 9.41732 29.7627 9.69436 29.4395 10.0176L10.9951 28.4619C10.8193 28.6378 10.6685 28.7942 10.4775 28.9023C10.2866 29.0104 10.0751 29.0589 9.83398 29.1191L2.17969 31.0332C2.0155 31.0743 1.837 31.1202 1.68848 31.1348C1.53374 31.1499 1.27289 31.1459 1.06348 30.9365C0.854069 30.7271 0.850098 30.4663 0.865234 30.3115C0.879764 30.163 0.92575 29.9845 0.966797 29.8203L2.88086 22.166C2.94114 21.9249 2.98962 21.7134 3.09766 21.5225C3.20578 21.3315 3.36225 21.1807 3.53809 21.0049L21.9824 2.56055C22.3056 2.23733 22.5827 1.95837 22.834 1.7666C23.0969 1.566 23.3896 1.41406 23.75 1.41406Z" stroke="white"/>
</svg>
