<svg width="48" height="48" viewBox="0 0 48 48" fill="none" xmlns="http://www.w3.org/2000/svg">
<rect width="48" height="48" fill="white"/>
<path d="M10.0442 27.5299C9.73084 29.6621 11.1319 31.1419 12.8474 31.8793C19.424 34.7069 28.5762 34.7069 35.1528 31.8793C36.8683 31.1419 38.2694 29.6621 37.956 27.5299C37.7634 26.2197 36.8111 25.1286 36.1055 24.0633C35.1814 22.6506 35.0896 21.1098 35.0894 19.4706C35.0894 13.1356 30.1246 8 24.0001 8C17.8757 8 12.9108 13.1356 12.9108 19.4706C12.9107 21.1098 12.8189 22.6506 11.8947 24.0633C11.1892 25.1286 10.2368 26.2197 10.0442 27.5299Z" stroke="#0E2148" stroke-width="3" stroke-linecap="round" stroke-linejoin="round"/>
<path d="M18 34C18.6877 36.8754 21.1133 39 24 39C26.8867 39 29.3123 36.8754 30 34" stroke="#0E2148" stroke-width="3" stroke-linecap="round" stroke-linejoin="round"/>
<path d="M41.2725 15.6363C41.2725 11.4189 37.8536 8 33.6362 8C29.4188 8 25.9999 11.4189 25.9999 15.6363C25.9999 19.8537 29.4188 23.2726 33.6362 23.2726C37.8536 23.2726 41.2725 19.8537 41.2725 15.6363Z" fill="#4D12EE"/>
</svg>
