<svg width="20" height="20" viewBox="0 0 20 20" fill="none" xmlns="http://www.w3.org/2000/svg">
<path d="M16.0986 1.26458C17.7544 0.712643 18.5825 0.436939 19.0195 0.873953C19.4565 1.31098 19.1808 2.13911 18.6289 3.79485L14.4932 16.2021C13.7088 18.5551 13.3164 19.7313 12.5957 19.7314C11.875 19.7314 11.4826 18.5551 10.6982 16.2021L9.2998 12.0077L14.5195 6.78899C14.9097 6.39859 14.9096 5.76542 14.5195 5.37493C14.1291 4.98448 13.496 4.9846 13.1055 5.37493L7.88672 10.5937L3.69141 9.19524C1.33845 8.41091 0.162109 8.0185 0.162109 7.29778C0.162178 6.5771 1.33849 6.18463 3.69141 5.40032L16.0986 1.26458Z" fill="#111111"/>
</svg>
