<svg width="16" height="16" viewBox="0 0 16 16" fill="none" xmlns="http://www.w3.org/2000/svg">
<path d="M5.66671 5.41512C5.66671 4.67635 4.68411 4.48053 4.42343 5.17178C3.79284 6.84386 3.33337 8.33967 3.33337 9.14838C3.33337 11.7257 5.42271 13.815 8.00004 13.815C10.5774 13.815 12.6667 11.7257 12.6667 9.14838C12.6667 8.27953 12.1364 6.61759 11.4333 4.79603C10.5224 2.43638 10.067 1.25656 9.50488 1.19301C9.325 1.17267 9.12876 1.20923 8.96827 1.29298C8.46671 1.5547 8.46671 2.8415 8.46671 5.41512C8.46671 6.18831 7.83991 6.81512 7.06671 6.81512C6.29351 6.81512 5.66671 6.18831 5.66671 5.41512Z" fill="#FF0000"/>
</svg>
