<svg width="16" height="16" viewBox="0 0 16 16" fill="none" xmlns="http://www.w3.org/2000/svg">
<path d="M1.66669 7.66797V5.66797C1.66669 3.45883 3.45755 1.66797 5.66669 1.66797H10.3334C12.5425 1.66797 14.3334 3.45883 14.3334 5.66797V10.3346C14.3334 12.5438 12.5425 14.3346 10.3334 14.3346H5.66669C3.45755 14.3346 1.66669 12.5438 1.66669 10.3346V10.3346" stroke="#999999" stroke-linecap="round"/>
<path d="M2.66669 8.66536L3.30552 8.02653C4.18785 7.1442 5.65383 7.27638 6.3641 8.30229L6.76646 8.88346C7.43114 9.84352 8.77351 10.0324 9.67728 9.29294L10.2658 8.81141C11.0611 8.16077 12.22 8.21858 12.9465 8.94515L14.3334 10.332" stroke="#999999" stroke-linecap="round"/>
<circle cx="11" cy="5" r="1" fill="#999999"/>
</svg>
