<svg width="349" height="66" viewBox="0 0 349 66" fill="none" xmlns="http://www.w3.org/2000/svg">
<g clip-path="url(#clip0_6505_3815)">
<path d="M161.188 13.3267C159.737 11.3096 157.48 9.90436 154.804 9.90436C150.393 9.90436 146.809 13.4853 146.809 17.8936C146.809 20.3413 147.977 22.4605 149.712 23.9223C151.617 18.7775 155.87 14.8339 161.2 13.3267H161.188Z" fill="#4D12EE"/>
<path d="M223.673 9.90436C220.883 9.90436 218.535 11.3096 217.027 13.3267C222.561 14.8339 226.995 18.7775 228.968 23.9223C230.771 22.4605 231.985 20.3413 231.985 17.8936C231.985 13.4853 228.265 9.90436 223.673 9.90436Z" fill="#4D12EE"/>
<path d="M35.2224 15.9218C30.0513 15.9218 26.2184 18.7435 24.8008 22.0979C23.5194 18.3355 18.8926 15.9218 14.3112 15.9218C10.3535 15.9218 6.24841 18.3355 5.10305 21.4292V19.2761C5.10305 17.7349 4.22986 16.5904 2.55153 16.5904C0.873189 16.5904 0 17.7349 0 19.2761V47.2214C0 48.7059 0.94123 49.7145 2.55153 49.7145C4.16182 49.7145 5.10305 48.7059 5.10305 47.2214V28.8859C5.10305 23.9223 8.33499 20.228 13.302 20.228C18.2689 20.228 21.24 24.0583 21.24 29.2258V47.2214C21.24 48.7059 22.1813 49.7145 23.7916 49.7145C25.4019 49.7145 26.3431 48.7059 26.3431 47.2214V29.2258C26.3431 23.5144 29.575 20.228 34.6781 20.228C39.7811 20.228 42.4801 24.0583 42.4801 29.2258V47.2214C42.4801 48.7059 43.4213 49.7145 45.0316 49.7145C46.6419 49.7145 47.5831 48.7059 47.5831 47.2214V28.8179C47.5831 21.3613 42.344 15.9218 35.2224 15.9218Z" fill="white"/>
<path d="M70.2407 15.9218C61.1686 15.9218 53.6388 23.3784 53.6388 33.1808C53.6388 42.9832 60.3635 50.3718 71.25 50.3718C77.4304 50.3718 81.0592 48.7626 83.9509 46.5415C86.4344 44.5923 83.8148 41.17 81.4674 42.9152C79.0407 44.6603 76.4211 46.0769 71.25 46.0769C64.5253 46.0769 59.2862 41.4533 58.8893 35.1299H83.486C85.7087 35.1299 86.5705 33.8607 86.5705 31.8436C86.5705 22.3018 79.2448 15.9218 70.2407 15.9218ZM58.8099 31.0956C59.3429 25.1236 64.049 20.2167 70.2294 20.2167C77.419 20.2167 81.7963 25.1236 81.7963 31.0956H58.8099Z" fill="white"/>
<path d="M123.21 0C121.532 0 120.727 1.00857 120.727 2.49309V23.0384C118.572 18.6075 113.333 15.9218 107.482 15.9218C97.6724 15.9218 90.9478 24.047 90.9478 33.1808C90.9478 42.3146 97.6724 50.3718 107.482 50.3718C113.333 50.3718 118.572 47.686 120.727 43.2551V47.2101C120.727 48.6946 121.532 49.7032 123.21 49.7032C124.889 49.7032 125.83 48.6946 125.83 47.2101V2.49309C125.83 1.00857 124.889 0 123.21 0ZM108.355 46.0769C100.757 46.0769 96.0508 40.4447 96.0508 33.1808C96.0508 25.9168 100.757 20.228 108.355 20.228C115.34 20.228 120.795 25.3955 120.795 33.1808C120.795 40.966 115.352 46.0769 108.355 46.0769Z" fill="white"/>
<path d="M136.456 15.9218C134.777 15.9218 133.904 17.0663 133.904 18.6075V47.0174C133.904 48.5586 134.709 49.7032 136.456 49.7032C138.202 49.7032 139.007 48.5586 139.007 47.0174V18.6075C139.007 17.0663 138.134 15.9218 136.456 15.9218Z" fill="white"/>
<path d="M136.456 1.40601C134.437 1.40601 132.691 3.01518 132.691 5.30429C132.691 7.59341 134.437 9.13459 136.456 9.13459C138.474 9.13459 140.221 7.59341 140.221 5.30429C140.221 3.01518 138.474 1.40601 136.456 1.40601Z" fill="white"/>
<path d="M169.093 15.1066C158.07 15.1066 151.005 23.3792 151.005 32.7169V62.3394C151.005 64.4132 152.343 65.8297 154.77 65.8297C157.197 65.8297 158.399 64.4245 158.399 62.3394V45.477C160.281 48.4234 164.182 51.0525 170.022 51.0525C180.036 51.0525 187.225 42.7799 187.225 33.1135C187.225 23.4472 180.172 15.1066 169.081 15.1066H169.093ZM169.161 44.7404C163.241 44.7404 158.342 40.3095 158.342 33.1249C158.342 25.9402 163.184 21.43 169.093 21.43C175.545 21.43 179.843 26.4729 179.843 33.1249C179.843 39.7769 175.613 44.7404 169.161 44.7404Z" fill="white"/>
<path d="M209.418 15.1059C198.327 15.1059 191.274 23.5031 191.274 33.1128C191.274 42.7225 198.463 51.0517 208.477 51.0517C214.328 51.0517 218.229 48.434 220.1 45.4763V46.8815C220.1 48.9553 221.314 50.3718 223.729 50.3718C226.145 50.3718 227.494 48.9666 227.494 46.8815V32.7048C227.494 23.3671 220.441 15.0945 209.418 15.0945V15.1059ZM209.361 44.7397C202.909 44.7397 198.679 39.7648 198.679 33.1241C198.679 26.4834 202.977 21.4293 209.429 21.4293C215.349 21.4293 220.18 25.9962 220.18 33.1241C220.18 40.2521 215.281 44.7397 209.361 44.7397Z" fill="white"/>
<path d="M249.959 15.1066C240.082 15.1066 234.23 21.226 234.23 30.6205V46.8822C234.23 48.956 235.512 50.3725 237.927 50.3725C240.343 50.3725 241.624 48.9673 241.624 46.8822V31.1531C241.624 24.977 244.516 21.4187 249.959 21.4187C255.402 21.4187 258.226 24.9883 258.226 31.1531V46.8822C258.226 48.956 259.507 50.3725 261.923 50.3725C264.338 50.3725 265.62 48.9673 265.62 46.8822V30.6205C265.62 21.226 259.78 15.1066 249.959 15.1066Z" fill="white"/>
<path d="M303.462 0C301.035 0 299.833 1.4052 299.833 3.50166V20.6927C298.018 17.9389 293.981 15.1059 288.209 15.1059C278.196 15.1059 271.006 23.3784 271.006 33.0448C271.006 42.7112 278.06 51.0517 289.15 51.0517C300.241 51.0517 307.227 42.9152 307.227 33.4414V3.50166C307.227 1.41653 305.888 0 303.462 0ZM289.139 44.7397C282.687 44.7397 278.389 39.6968 278.389 33.0448C278.389 26.3928 282.619 21.4293 289.071 21.4293C294.991 21.4293 299.89 25.8602 299.89 33.0448C299.89 40.2294 295.047 44.7397 289.139 44.7397Z" fill="white"/>
<path d="M330.746 15.1059C319.655 15.1059 312.602 23.5031 312.602 33.1128C312.602 42.7225 319.791 51.0517 329.805 51.0517C335.656 51.0517 339.557 48.434 341.428 45.4763V46.8815C341.428 48.9553 342.642 50.3718 345.057 50.3718C347.473 50.3718 348.822 48.9666 348.822 46.8815V32.7048C348.822 23.3671 341.768 15.0945 330.746 15.0945V15.1059ZM330.678 44.7397C324.225 44.7397 319.995 39.7648 319.995 33.1241C319.995 26.4834 324.293 21.4293 330.746 21.4293C336.665 21.4293 341.496 25.9962 341.496 33.1241C341.496 40.2521 336.597 44.7397 330.678 44.7397Z" fill="white"/>
</g>
<defs>
<clipPath id="clip0_6505_3815">
<rect width="348.833" height="65.8176" fill="white"/>
</clipPath>
</defs>
</svg>
